<?xml version="1.0" encoding="utf-8"?>
<svg xmlns="http://www.w3.org/2000/svg" viewBox="0 0 500 500">
  <g id="BACKGROUND" transform="matrix(1, 0, 0, 1, 21.230211, -90.813698)"/>
  <g id="OBJECT" transform="matrix(1, 0, 0, 1, 21.230211, -90.813698)">
    <g>
      <linearGradient id="SVGID_1_" gradientUnits="userSpaceOnUse" x1="181.157" y1="120.3884" x2="313.0274" y2="276.6793">
        <stop offset="0.0193" style="stop-color:#EF4568"/>
        <stop offset="0.3677" style="stop-color:#EF6E4B"/>
        <stop offset="0.7831" style="stop-color:#F0992D"/>
        <stop offset="0.9947" style="stop-color:#F0AA21"/>
      </linearGradient>
      <linearGradient id="SVGID_00000018932425228218948710000002097059579697237637_" gradientUnits="userSpaceOnUse" x1="195.537" y1="117.3751" x2="325.1093" y2="270.9423">
        <stop offset="0.0193" style="stop-color:#EF4568"/>
        <stop offset="0.3677" style="stop-color:#EF6E4B"/>
        <stop offset="0.7831" style="stop-color:#F0992D"/>
        <stop offset="0.9947" style="stop-color:#F0AA21"/>
      </linearGradient>
      <g>
        <polygon style="fill:url(#SVGID_1_);" points="285.387,231.111 259.21,245.321 259.21,276.235 312.499,244.074 312.499,212.715 &#xA;&#9;&#9;&#9;285.387,212.715 &#9;&#9;"/>
        <path style="fill:url(#SVGID_00000018932425228218948710000002097059579697237637_);" d="M310.609,142.051l-57.382-26.852 c-2.441-1.142-5.285-1.025-7.624,0.315l-56.248,31.465c-1.147,0.657-1.854,1.877-1.854,3.199v18.662 c0,2.719,2.843,4.503,5.291,3.319l23.046-11.114c2.448-1.183,5.291,0.6,5.291,3.319v95.417l28.074,16.454l0.104-131.289 l34.089,12.501c1.223,0.634,1.991,1.896,1.991,3.274v14.442h27.112v-29.891C312.499,143.934,311.776,142.702,310.609,142.051z"/>
      </g>
    </g>
    <g>
      <g/>
    </g>
  </g>
</svg>